<svg width="47" height="47" viewBox="0 0 47 47" fill="none" xmlns="http://www.w3.org/2000/svg">
<path d="M3.93457 39.5264C5.83978 39.5264 7.36914 41.0963 7.36914 43.0137C7.36893 44.9308 5.83965 46.5 3.93457 46.5C2.02959 46.4999 0.500212 44.9308 0.5 43.0137C0.5 41.0964 2.02946 39.5265 3.93457 39.5264ZM26.4346 0.5C37.5244 0.5 46.4998 9.64665 46.5 20.9111C46.5 32.1758 37.5245 41.3232 26.4346 41.3232C23.0649 41.3232 19.8912 40.4771 17.1045 38.9854C16.0378 40.8565 14.0483 42.1191 11.7607 42.1191C8.34281 42.1191 5.58691 39.3016 5.58691 35.8447C5.58706 33.5273 6.82649 31.4985 8.67285 30.4121C7.20265 27.5736 6.36914 24.3406 6.36914 20.9111C6.36934 9.64672 15.3448 0.500117 26.4346 0.5Z" fill="#E9E9EA" stroke="white"/>
<path d="M26.6622 12.5449C26.9337 12.003 27.2876 11.41 27.4489 11.2268C27.6102 11.0435 27.8616 10.8938 28.0075 10.8938C28.1535 10.8938 28.5134 11.0182 28.8074 11.1703C29.1014 11.3223 29.4461 11.6982 29.5736 12.0059C29.7203 12.36 29.7739 13.1483 29.7199 14.1553C29.6731 15.03 29.542 16.088 29.4286 16.5066C29.315 16.9252 29.1697 17.4817 29.1054 17.7434L28.9885 18.219L31.8688 18.1538C34.4442 18.0953 34.7895 18.1252 35.1322 18.4354C35.4357 18.7099 35.4899 18.9215 35.3929 19.4519C35.3255 19.8203 35.2016 20.8494 35.1179 21.7389C35.034 22.6284 34.898 23.5598 34.8156 23.8086C34.7332 24.0575 34.374 24.7425 34.0174 25.3308C33.6609 25.9191 33.3247 26.6145 33.2703 26.8761C33.2158 27.1377 33.0711 27.4867 32.9483 27.6514C32.8256 27.8162 32.4793 28.1113 32.1787 28.3069C31.8781 28.5025 31.1931 28.7436 30.6566 28.8423C30.12 28.9411 28.7819 29.02 27.6831 29.0175C26.5843 29.0153 25.1716 28.9369 24.5437 28.8434C23.9159 28.7498 23.1354 28.5143 22.8097 28.3196C22.4837 28.1252 22.0556 27.6994 21.8583 27.3735C21.6213 26.9823 21.4506 26.1993 21.3558 25.0686C21.2767 24.1268 21.2053 23.1421 21.1973 22.8805C21.1892 22.6189 21.2539 22.1023 21.341 21.7327C21.4281 21.363 21.7447 20.678 22.0444 20.2105C22.3441 19.743 22.9006 19.1382 23.2811 18.8663C23.6617 18.5944 24.2648 17.8828 24.6214 17.2852C24.9781 16.6874 25.472 15.5979 25.7192 14.8643C25.9664 14.1304 26.3906 13.0866 26.6622 12.5449Z" fill="#808080"/>
<path d="M17.1066 22.4049C17.2512 21.9863 17.6424 21.3654 17.976 21.0254C18.4472 20.545 18.7422 20.4071 19.2981 20.4071C19.7658 20.4071 20.1298 20.5355 20.3493 20.7781C20.6148 21.0713 20.6568 21.3207 20.5503 21.9672C20.476 22.4172 20.4104 23.4275 20.4043 24.2124C20.3982 24.9972 20.4884 25.9819 20.6049 26.4004C20.7213 26.819 20.8718 27.3902 20.9395 27.6699C21.044 28.1018 20.9753 28.2234 20.4818 28.4785C20.1625 28.6437 19.6895 28.7788 19.4311 28.7788C19.1293 28.7788 18.6661 28.4823 18.1373 27.9507C17.6594 27.4703 17.2138 26.7928 17.0758 26.3365C16.9451 25.904 16.8393 25.0138 16.8408 24.3581C16.8424 23.7025 16.962 22.8234 17.1066 22.4049Z" fill="#808080"/>
</svg>
