<svg width="47" height="47" viewBox="0 0 47 47" fill="none" xmlns="http://www.w3.org/2000/svg">
<path d="M3.93457 39.5264C5.83978 39.5264 7.36914 41.0963 7.36914 43.0137C7.36893 44.9308 5.83965 46.5 3.93457 46.5C2.02959 46.4999 0.500212 44.9308 0.5 43.0137C0.5 41.0964 2.02946 39.5265 3.93457 39.5264ZM26.4346 0.5C37.5244 0.5 46.4998 9.64665 46.5 20.9111C46.5 32.1758 37.5245 41.3232 26.4346 41.3232C23.0649 41.3232 19.8912 40.4771 17.1045 38.9854C16.0378 40.8565 14.0483 42.1191 11.7607 42.1191C8.34281 42.1191 5.58691 39.3016 5.58691 35.8447C5.58706 33.5273 6.82649 31.4985 8.67285 30.4121C7.20265 27.5736 6.36914 24.3406 6.36914 20.9111C6.36934 9.64672 15.3448 0.500117 26.4346 0.5Z" fill="#E9E9EA" stroke="white"/>
<path d="M21.581 14.5006C22.1077 14.3728 22.7587 14.1961 23.0277 14.1082C23.2967 14.0206 24.2212 13.9772 25.082 14.0121C25.9429 14.047 27.1755 14.15 27.8212 14.2411C28.4668 14.3323 29.1712 14.4673 29.3864 14.5413C29.6016 14.6153 29.9608 14.7559 30.1848 14.8537C30.4087 14.9515 30.7595 15.2886 30.9645 15.6026C31.1696 15.9168 31.403 16.7005 31.4832 17.3442C31.5636 17.9879 31.6828 18.8877 31.7481 19.3436C31.8275 19.8981 31.7598 20.4649 31.5438 21.0543C31.366 21.5392 31.0847 22.1287 30.9182 22.3644C30.7518 22.6001 30.1412 23.2298 29.5609 23.7637C28.8961 24.3758 28.2099 25.2766 27.705 26.2011C27.2642 27.0078 26.7335 28.1582 26.5254 28.7576C26.3174 29.3571 26.0022 30.0525 25.8249 30.3033C25.6477 30.554 25.364 30.8577 25.1945 30.9784C25.0251 31.099 24.741 31.2004 24.5636 31.2035C24.3859 31.2067 23.9177 30.9119 23.5229 30.5486L22.8052 29.8881L22.8911 28.4328C22.9385 27.6326 23.0831 26.6131 23.2124 26.1674C23.3417 25.7217 23.463 25.1545 23.4822 24.9069C23.516 24.4667 23.4887 24.4575 22.2451 24.4883C21.5456 24.5054 20.5979 24.5749 20.1391 24.6424C19.6239 24.7182 18.965 24.6729 18.4158 24.5236C17.9268 24.3907 17.3835 24.1364 17.2086 23.9584C16.9142 23.6589 16.9206 23.5545 17.2972 22.5517C17.6228 21.685 17.6621 21.3665 17.4948 20.9583C17.3321 20.5614 17.3612 20.2267 17.6267 19.4502C17.8142 18.9012 18.2698 17.9905 18.639 17.4261C19.0082 16.862 19.3103 16.2966 19.3103 16.17C19.3103 16.0432 19.6057 15.6681 19.9669 15.3365C20.3745 14.9621 20.9867 14.645 21.581 14.5006Z" fill="#808080"/>
<path d="M32.2502 16.0117C32.0866 15.3601 32.0858 15.0658 32.2478 14.8863C32.376 14.7441 32.8561 14.6432 33.4047 14.6432C34.2043 14.6432 34.4344 14.7295 34.9662 15.2284C35.3092 15.5504 35.7114 16.1378 35.8601 16.5339C36.0088 16.9301 36.1305 17.8619 36.1305 18.6047C36.1305 19.3474 36.0096 20.2749 35.8617 20.666C35.7138 21.057 35.3978 21.5633 35.1593 21.7915C34.8265 22.1096 34.5103 22.206 33.7983 22.206C33.1188 22.206 32.7761 22.1094 32.516 21.8451C32.2044 21.5282 32.1907 21.4021 32.4032 20.8097C32.5548 20.3868 32.6127 19.5309 32.5585 18.5146C32.511 17.6233 32.3722 16.497 32.2502 16.0117Z" fill="#808080"/>
</svg>
